# xmcd
#
# Track frame offsets: 
#        150
#        16332
#        32644
#        47763
#        62718
#        76287
#        92064
#        111869
#        130686
#        144434
#        157392
#        174779
#        191888
#        210474
#        226312
#        239748
#        254293
#        265484
#        282330
#        296908
#
# Disc length: 4199 seconds
#
# Revision: 1
# Processed by: cddbd v1.5.2PL0 Copyright (c) Steve Scherf et al.
# Submitted via: ExactAudioCopy v1.3
#
DISCID=29106514
DTITLE=Various Artist - Axé Bahia 2007
DYEAR=2007
DGENRE=Axé
TTITLE0=Ivete Sangalo - Berimbau Metalizado
TTITLE1=Jammil E Uma Noites - De Bandeja
TTITLE2=Babado Novo - A Camisa E O Botão
TTITLE3=Caetane Veloso E Jauperi - Ó Pai, Ó
TTITLE4=Araketu - Cuzcuz
TTITLE5=Rapazolla - Aprendendo A Amar
TTITLE6=Psirico - Eu Sou O Cara
TTITLE7=Luis Caldas E Durval Lelys - Vaza (Ao Vivo)
TTITLE8=Banda Eva - Marley (Ao Vivo)
TTITLE9=Xinelada - Bote Aê
TTITLE10=Ivete Sangalo - Abalou
TTITLE11=Vixi Mainha - Beija Flor
TTITLE12=Unskamaradas - Não Me Chame
TTITLE13=Netinho - Balanço Legal
TTITLE14=Motumba - Bororó
TTITLE15=Terra Samba - Calafrio
TTITLE16=Banda Guig Ghetto - Linguagem Do Ghetto
TTITLE17=Zé Paulo - Tamborzeira
TTITLE18=Nata Do Tchan - Destino
TTITLE19=Babado Novo - Bola De Sabão
EXTD=
EXTT0=
EXTT1=
EXTT2=
EXTT3=
EXTT4=
EXTT5=
EXTT6=
EXTT7=
EXTT8=
EXTT9=
EXTT10=
EXTT11=
EXTT12=
EXTT13=
EXTT14=
EXTT15=
EXTT16=
EXTT17=
EXTT18=
EXTT19=
PLAYORDER=
